<svg width="575" height="81" viewBox="0 0 575 81" fill="none" xmlns="http://www.w3.org/2000/svg">
<path fill-rule="evenodd" clip-rule="evenodd" d="M537.499 1.09168C493.34 2.00788 443.44 4.64605 393.955 8.68034C308.576 15.6413 256.474 21.1539 180.705 31.243C164.17 33.4449 138.302 36.8376 123.221 38.7828C89.0534 43.1892 75.1037 45.173 52.0274 48.9072C24.4323 53.3727 13.3112 56.021 3.26648 60.5189C-0.339124 62.1331 -1.17363 62.7258 1.8436 61.5292C15.0437 56.2941 51.5285 50.1392 121.734 41.3043C136.725 39.4179 158.281 36.6812 169.637 35.223C241.134 26.043 282.531 21.8128 359.762 15.7941C417.022 11.3319 443.287 9.70844 487.118 7.92264C515.635 6.7607 551.423 5.82729 550.383 6.27248C549.396 6.69511 508.97 9.86305 464.984 12.9648C453.264 13.7914 434.532 15.1264 423.358 15.9316C412.183 16.7371 398.06 17.7384 391.973 18.1575C361.242 20.2721 312.2 23.9954 268.747 27.513C172.887 35.2729 122.623 41.7928 73.9966 52.7756C53.3141 57.4468 49.7148 58.6891 49.7148 61.1558C49.7148 64.6858 51.6719 64.5834 94.4793 58.8141C182.708 46.9234 269.24 40.0649 358.441 37.893C408.349 36.6776 483.621 36.9783 482.054 38.3862C481.673 38.7287 412.528 46.2598 373.473 50.2131C345.4 53.0543 312.015 56.9832 273.867 61.9349C245.804 65.5777 206.487 72.0323 197.975 74.3942C194.439 75.3754 193.079 77.4921 194.87 79.2281C196.795 81.0943 203.637 80.6948 236.536 76.7955C308.85 68.2245 348.073 65.3296 405.848 64.2988C415.206 64.132 426.95 63.7863 431.947 63.5307C442.512 62.99 457.331 62.9345 465.772 63.4037C469.021 63.5845 471.729 63.6886 471.788 63.6352C471.885 63.5479 463.564 62.6525 443.51 60.5916C430.69 59.2738 428.578 59.1881 405.518 59.0447C365.051 58.7934 340.171 60.0473 297.894 64.4689C277.495 66.6022 279.991 66.1211 305.748 62.9556C327.196 60.3195 354.525 57.2429 374.133 55.257C398.619 52.7768 434.743 48.9829 443.345 47.988C447.524 47.5046 458.525 46.2337 467.792 45.1641C496.203 41.8836 498.418 41.4462 499.343 38.9273C500.594 35.5237 496.475 34.2395 480.841 33.1585C459.887 31.7096 388.532 32.0064 339.28 33.7474C249.585 36.9177 175.879 43.394 80.6039 56.4769C77.5147 56.901 80.1477 56.1836 86.2565 54.9371C146.678 42.6057 201.68 36.9791 392.138 23.647C461.446 18.7953 533.953 12.9981 555.834 10.5587C572.206 8.73376 576.414 7.18154 574.614 3.63131C573.276 0.992243 566.066 0.498991 537.499 1.09168ZM283.365 65.9876C283.139 66.0701 282.767 66.0701 282.54 65.9876C282.313 65.9053 282.498 65.838 282.953 65.838C283.407 65.838 283.593 65.9053 283.365 65.9876Z" fill="#DE0220"/>
</svg>
