<svg width="972" height="343" viewBox="0 0 972 343" fill="none" xmlns="http://www.w3.org/2000/svg">
<g filter="url(#filter0_d_497_523)">
<path fill-rule="evenodd" clip-rule="evenodd" d="M736.499 255.092C692.34 256.008 642.44 258.646 592.955 262.68C507.576 269.641 455.474 275.154 379.705 285.243C363.17 287.445 337.302 290.838 322.221 292.783C288.053 297.189 274.104 299.173 251.027 302.907C223.432 307.373 212.311 310.021 202.266 314.519C198.661 316.133 197.826 316.726 200.844 315.529C214.044 310.294 250.529 304.139 320.734 295.304C335.725 293.418 357.281 290.681 368.637 289.223C440.134 280.043 481.531 275.813 558.762 269.794C616.022 265.332 642.287 263.708 686.118 261.923C714.635 260.761 750.423 259.827 749.383 260.272C748.396 260.695 707.97 263.863 663.984 266.965C652.264 267.791 633.532 269.126 622.358 269.932C611.183 270.737 597.06 271.738 590.973 272.157C560.242 274.272 511.2 277.995 467.747 281.513C371.887 289.273 321.623 295.793 272.997 306.776C252.314 311.447 248.715 312.689 248.715 315.156C248.715 318.686 250.672 318.583 293.479 312.814C381.708 300.923 468.24 294.065 557.441 291.893C607.349 290.678 682.621 290.978 681.054 292.386C680.673 292.729 611.528 300.26 572.473 304.213C544.4 307.054 511.015 310.983 472.867 315.935C444.804 319.578 405.487 326.032 396.975 328.394C393.439 329.375 392.079 331.492 393.87 333.228C395.795 335.094 402.637 334.695 435.536 330.796C507.85 322.224 547.073 319.33 604.848 318.299C614.206 318.132 625.95 317.786 630.947 317.531C641.512 316.99 656.331 316.934 664.772 317.404C668.021 317.584 670.729 317.689 670.788 317.635C670.885 317.548 662.564 316.653 642.51 314.592C629.69 313.274 627.578 313.188 604.518 313.045C564.051 312.793 539.171 314.047 496.894 318.469C476.495 320.602 478.991 320.121 504.748 316.956C526.196 314.319 553.525 311.243 573.133 309.257C597.619 306.777 633.743 302.983 642.345 301.988C646.524 301.505 657.525 300.234 666.792 299.164C695.203 295.884 697.418 295.446 698.343 292.927C699.594 289.524 695.475 288.239 679.841 287.159C658.887 285.71 587.532 286.006 538.28 287.747C448.585 290.918 374.879 297.394 279.604 310.477C276.515 310.901 279.148 310.184 285.256 308.937C345.678 296.606 400.68 290.979 591.138 277.647C660.446 272.795 732.953 266.998 754.834 264.559C771.206 262.734 775.414 261.182 773.614 257.631C772.276 254.992 765.066 254.499 736.499 255.092ZM482.365 319.988C482.139 320.07 481.767 320.07 481.54 319.988C481.313 319.905 481.498 319.838 481.953 319.838C482.407 319.838 482.593 319.905 482.365 319.988Z" fill="#DE0220"/>
<path d="M45.2495 15H58.7808V56.5625C58.7808 61.2292 57.6662 65.3125 55.437 68.8125C53.2287 72.3125 50.135 75.0417 46.1558 77C42.1766 78.9375 37.5412 79.9063 32.2495 79.9063C26.937 79.9063 22.2912 78.9375 18.312 77C14.3329 75.0417 11.2391 72.3125 9.03079 68.8125C6.82246 65.3125 5.71829 61.2292 5.71829 56.5625V15H19.2495V55.4062C19.2495 57.8437 19.7808 60.0104 20.8433 61.9062C21.9266 63.8021 23.4475 65.2917 25.4058 66.375C27.3641 67.4583 29.6454 68 32.2495 68C34.8745 68 37.1558 67.4583 39.0933 66.375C41.0516 65.2917 42.562 63.8021 43.6245 61.9062C44.7079 60.0104 45.2495 57.8437 45.2495 55.4062V15ZM79.4561 51.25V79H66.1436V31H78.8311V39.4688H79.3936C80.4561 36.6771 82.2374 34.4687 84.7374 32.8437C87.2374 31.1979 90.2686 30.375 93.8311 30.375C97.1644 30.375 100.071 31.1042 102.55 32.5625C105.029 34.0208 106.956 36.1042 108.331 38.8125C109.706 41.5 110.394 44.7083 110.394 48.4375V79H97.0811V50.8125C97.1019 47.875 96.3519 45.5833 94.8311 43.9375C93.3103 42.2708 91.2165 41.4375 88.5499 41.4375C86.7582 41.4375 85.1749 41.8229 83.7999 42.5937C82.4457 43.3646 81.3832 44.4896 80.6124 45.9687C79.8624 47.4271 79.4769 49.1875 79.4561 51.25ZM130.678 15V79H117.366V15H130.678ZM159.697 79.9375C154.76 79.9375 150.51 78.9375 146.947 76.9375C143.406 74.9167 140.677 72.0625 138.76 68.375C136.843 64.6667 135.885 60.2812 135.885 55.2187C135.885 50.2812 136.843 45.9479 138.76 42.2188C140.677 38.4896 143.374 35.5833 146.854 33.5C150.354 31.4167 154.458 30.375 159.166 30.375C162.333 30.375 165.281 30.8854 168.01 31.9062C170.76 32.9062 173.156 34.4167 175.197 36.4375C177.26 38.4583 178.864 41 180.01 44.0625C181.156 47.1042 181.729 50.6667 181.729 54.75V58.4062H141.197V50.1562H169.197C169.197 48.2396 168.781 46.5417 167.947 45.0625C167.114 43.5833 165.958 42.4271 164.479 41.5937C163.02 40.7396 161.322 40.3125 159.385 40.3125C157.364 40.3125 155.572 40.7812 154.01 41.7187C152.468 42.6354 151.26 43.875 150.385 45.4375C149.51 46.9792 149.062 48.6979 149.041 50.5937V58.4375C149.041 60.8125 149.479 62.8646 150.354 64.5937C151.249 66.3229 152.51 67.6562 154.135 68.5937C155.76 69.5312 157.687 70 159.916 70C161.395 70 162.749 69.7917 163.979 69.375C165.208 68.9583 166.26 68.3333 167.135 67.5C168.01 66.6667 168.677 65.6458 169.135 64.4375L181.447 65.25C180.822 68.2083 179.541 70.7917 177.604 73C175.687 75.1875 173.208 76.8958 170.166 78.125C167.145 79.3333 163.656 79.9375 159.697 79.9375ZM200.584 79.9063C197.521 79.9063 194.792 79.375 192.396 78.3125C190 77.2292 188.104 75.6354 186.709 73.5312C185.334 71.4063 184.646 68.7604 184.646 65.5938C184.646 62.9271 185.136 60.6875 186.115 58.875C187.094 57.0625 188.427 55.6042 190.115 54.5C191.802 53.3958 193.719 52.5625 195.865 52C198.032 51.4375 200.302 51.0417 202.677 50.8125C205.469 50.5208 207.719 50.25 209.427 50C211.136 49.7292 212.375 49.3333 213.146 48.8125C213.917 48.2917 214.302 47.5208 214.302 46.5V46.3125C214.302 44.3333 213.677 42.8021 212.427 41.7187C211.198 40.6354 209.448 40.0937 207.177 40.0937C204.782 40.0937 202.875 40.625 201.459 41.6875C200.042 42.7292 199.104 44.0417 198.646 45.625L186.334 44.625C186.959 41.7083 188.188 39.1875 190.021 37.0625C191.854 34.9167 194.219 33.2708 197.115 32.125C200.032 30.9583 203.407 30.375 207.24 30.375C209.907 30.375 212.459 30.6875 214.896 31.3125C217.354 31.9375 219.532 32.9062 221.427 34.2187C223.344 35.5312 224.854 37.2187 225.959 39.2812C227.063 41.3229 227.615 43.7708 227.615 46.625V79H214.99V72.3438H214.615C213.844 73.8438 212.813 75.1667 211.521 76.3125C210.229 77.4375 208.677 78.3229 206.865 78.9687C205.052 79.5938 202.959 79.9063 200.584 79.9063ZM204.396 70.7187C206.354 70.7187 208.084 70.3333 209.584 69.5625C211.084 68.7708 212.261 67.7083 213.115 66.375C213.969 65.0417 214.396 63.5312 214.396 61.8437V56.75C213.979 57.0208 213.407 57.2708 212.677 57.5C211.969 57.7083 211.167 57.9062 210.271 58.0937C209.375 58.2604 208.479 58.4167 207.584 58.5625C206.688 58.6875 205.875 58.8021 205.146 58.9062C203.584 59.1354 202.219 59.5 201.052 60C199.886 60.5 198.979 61.1771 198.334 62.0313C197.688 62.8646 197.365 63.9062 197.365 65.1562C197.365 66.9688 198.021 68.3542 199.334 69.3125C200.667 70.25 202.354 70.7187 204.396 70.7187ZM274.36 44.6875L262.173 45.4375C261.965 44.3958 261.517 43.4583 260.829 42.625C260.142 41.7708 259.235 41.0937 258.11 40.5937C257.006 40.0729 255.683 39.8125 254.142 39.8125C252.079 39.8125 250.34 40.25 248.923 41.125C247.506 41.9792 246.798 43.125 246.798 44.5625C246.798 45.7083 247.256 46.6771 248.173 47.4688C249.09 48.2604 250.663 48.8958 252.892 49.375L261.579 51.125C266.246 52.0833 269.725 53.625 272.017 55.75C274.308 57.875 275.454 60.6667 275.454 64.125C275.454 67.2708 274.527 70.0312 272.673 72.4063C270.84 74.7812 268.319 76.6354 265.11 77.9688C261.923 79.2813 258.246 79.9375 254.079 79.9375C247.725 79.9375 242.663 78.6146 238.892 75.9687C235.142 73.3021 232.944 69.6771 232.298 65.0937L245.392 64.4062C245.788 66.3437 246.746 67.8229 248.267 68.8437C249.788 69.8437 251.735 70.3438 254.11 70.3438C256.444 70.3438 258.319 69.8958 259.735 69C261.173 68.0833 261.902 66.9062 261.923 65.4688C261.902 64.2604 261.392 63.2708 260.392 62.5C259.392 61.7083 257.85 61.1042 255.767 60.6875L247.454 59.0312C242.767 58.0937 239.277 56.4687 236.985 54.1562C234.715 51.8437 233.579 48.8958 233.579 45.3125C233.579 42.2292 234.413 39.5729 236.079 37.3437C237.767 35.1146 240.131 33.3958 243.173 32.1875C246.235 30.9792 249.819 30.375 253.923 30.375C259.985 30.375 264.756 31.6562 268.235 34.2187C271.735 36.7812 273.777 40.2708 274.36 44.6875ZM293.63 51.25V79H280.317V15H293.255V39.4688H293.817C294.9 36.6354 296.65 34.4167 299.067 32.8125C301.484 31.1875 304.515 30.375 308.161 30.375C311.494 30.375 314.4 31.1042 316.88 32.5625C319.38 34 321.317 36.0729 322.692 38.7812C324.088 41.4687 324.775 44.6875 324.755 48.4375V79H311.442V50.8125C311.463 47.8542 310.713 45.5521 309.192 43.9062C307.692 42.2604 305.588 41.4375 302.88 41.4375C301.067 41.4375 299.463 41.8229 298.067 42.5937C296.692 43.3646 295.609 44.4896 294.817 45.9687C294.046 47.4271 293.65 49.1875 293.63 51.25ZM331.711 79V31H345.024V79H331.711ZM338.399 24.8125C336.419 24.8125 334.722 24.1562 333.305 22.8437C331.909 21.5104 331.211 19.9167 331.211 18.0625C331.211 16.2292 331.909 14.6562 333.305 13.3438C334.722 12.0104 336.419 11.3437 338.399 11.3437C340.378 11.3437 342.065 12.0104 343.461 13.3438C344.878 14.6562 345.586 16.2292 345.586 18.0625C345.586 19.9167 344.878 21.5104 343.461 22.8437C342.065 24.1562 340.378 24.8125 338.399 24.8125ZM365.48 51.25V79H352.168V31H364.855V39.4688H365.418C366.48 36.6771 368.261 34.4687 370.761 32.8437C373.261 31.1979 376.293 30.375 379.855 30.375C383.188 30.375 386.095 31.1042 388.574 32.5625C391.053 34.0208 392.98 36.1042 394.355 38.8125C395.73 41.5 396.418 44.7083 396.418 48.4375V79H383.105V50.8125C383.126 47.875 382.376 45.5833 380.855 43.9375C379.334 42.2708 377.241 41.4375 374.574 41.4375C372.782 41.4375 371.199 41.8229 369.824 42.5937C368.47 43.3646 367.407 44.4896 366.636 45.9687C365.886 47.4271 365.501 49.1875 365.48 51.25ZM425.015 98C420.702 98 417.004 97.4063 413.921 96.2188C410.859 95.0521 408.421 93.4583 406.609 91.4375C404.796 89.4167 403.619 87.1458 403.077 84.625L415.39 82.9688C415.765 83.9271 416.359 84.8229 417.171 85.6562C417.984 86.4896 419.057 87.1562 420.39 87.6562C421.744 88.1771 423.39 88.4375 425.327 88.4375C428.223 88.4375 430.609 87.7292 432.484 86.3125C434.379 84.9167 435.327 82.5729 435.327 79.2813V70.5H434.765C434.182 71.8333 433.307 73.0937 432.14 74.2812C430.973 75.4687 429.473 76.4375 427.64 77.1875C425.807 77.9375 423.619 78.3125 421.077 78.3125C417.473 78.3125 414.192 77.4792 411.234 75.8125C408.296 74.125 405.952 71.5521 404.202 68.0937C402.473 64.6146 401.609 60.2187 401.609 54.9062C401.609 49.4687 402.494 44.9271 404.265 41.2812C406.036 37.6354 408.39 34.9062 411.327 33.0937C414.286 31.2813 417.525 30.375 421.046 30.375C423.734 30.375 425.984 30.8333 427.796 31.75C429.609 32.6458 431.067 33.7708 432.171 35.125C433.296 36.4583 434.161 37.7708 434.765 39.0625H435.265V31H448.484V79.4688C448.484 83.5521 447.484 86.9688 445.484 89.7188C443.484 92.4688 440.713 94.5313 437.171 95.9063C433.65 97.3021 429.598 98 425.015 98ZM425.296 68.3125C427.442 68.3125 429.254 67.7812 430.734 66.7188C432.234 65.6354 433.379 64.0937 434.171 62.0937C434.984 60.0729 435.39 57.6562 435.39 54.8437C435.39 52.0312 434.994 49.5937 434.202 47.5312C433.411 45.4479 432.265 43.8333 430.765 42.6875C429.265 41.5417 427.442 40.9687 425.296 40.9687C423.109 40.9687 421.265 41.5625 419.765 42.75C418.265 43.9167 417.129 45.5417 416.359 47.625C415.588 49.7083 415.202 52.1146 415.202 54.8437C415.202 57.6146 415.588 60.0104 416.359 62.0313C417.15 64.0312 418.286 65.5833 419.765 66.6875C421.265 67.7708 423.109 68.3125 425.296 68.3125ZM497.936 31V41H469.03V31H497.936ZM475.592 19.5H488.905V64.25C488.905 65.4792 489.092 66.4375 489.467 67.125C489.842 67.7917 490.363 68.2604 491.03 68.5312C491.717 68.8021 492.509 68.9375 493.405 68.9375C494.03 68.9375 494.655 68.8854 495.28 68.7812C495.905 68.6562 496.384 68.5625 496.717 68.5L498.811 78.4062C498.144 78.6146 497.207 78.8542 495.998 79.125C494.79 79.4167 493.321 79.5938 491.592 79.6563C488.384 79.7813 485.571 79.3542 483.155 78.375C480.759 77.3958 478.894 75.875 477.561 73.8125C476.227 71.75 475.571 69.1458 475.592 66V19.5ZM517.431 51.25V79H504.119V15H517.056V39.4688H517.619C518.702 36.6354 520.452 34.4167 522.869 32.8125C525.286 31.1875 528.317 30.375 531.963 30.375C535.296 30.375 538.202 31.1042 540.681 32.5625C543.181 34 545.119 36.0729 546.494 38.7812C547.89 41.4687 548.577 44.6875 548.556 48.4375V79H535.244V50.8125C535.265 47.8542 534.515 45.5521 532.994 43.9062C531.494 42.2604 529.39 41.4375 526.681 41.4375C524.869 41.4375 523.265 41.8229 521.869 42.5937C520.494 43.3646 519.411 44.4896 518.619 45.9687C517.848 47.4271 517.452 49.1875 517.431 51.25ZM577.388 79.9375C572.45 79.9375 568.2 78.9375 564.638 76.9375C561.096 74.9167 558.367 72.0625 556.45 68.375C554.534 64.6667 553.575 60.2812 553.575 55.2187C553.575 50.2812 554.534 45.9479 556.45 42.2188C558.367 38.4896 561.065 35.5833 564.544 33.5C568.044 31.4167 572.148 30.375 576.857 30.375C580.023 30.375 582.971 30.8854 585.7 31.9062C588.45 32.9062 590.846 34.4167 592.888 36.4375C594.95 38.4583 596.555 41 597.7 44.0625C598.846 47.1042 599.419 50.6667 599.419 54.75V58.4062H558.888V50.1562H586.888C586.888 48.2396 586.471 46.5417 585.638 45.0625C584.805 43.5833 583.648 42.4271 582.169 41.5937C580.711 40.7396 579.013 40.3125 577.075 40.3125C575.055 40.3125 573.263 40.7812 571.7 41.7187C570.159 42.6354 568.95 43.875 568.075 45.4375C567.2 46.9792 566.753 48.6979 566.732 50.5937V58.4375C566.732 60.8125 567.169 62.8646 568.044 64.5937C568.94 66.3229 570.2 67.6562 571.825 68.5937C573.45 69.5312 575.378 70 577.607 70C579.086 70 580.44 69.7917 581.669 69.375C582.898 68.9583 583.95 68.3333 584.825 67.5C585.7 66.6667 586.367 65.6458 586.825 64.4375L599.138 65.25C598.513 68.2083 597.232 70.7917 595.294 73C593.378 75.1875 590.898 76.8958 587.857 78.125C584.836 79.3333 581.346 79.9375 577.388 79.9375ZM621.434 97V31H634.559V39.0625H635.153C635.736 37.7708 636.58 36.4583 637.684 35.125C638.809 33.7708 640.267 32.6458 642.059 31.75C643.871 30.8333 646.121 30.375 648.809 30.375C652.309 30.375 655.538 31.2917 658.496 33.125C661.455 34.9375 663.819 37.6771 665.59 41.3437C667.361 44.9896 668.246 49.5625 668.246 55.0625C668.246 60.4167 667.382 64.9375 665.653 68.625C663.944 72.2917 661.611 75.0729 658.653 76.9687C655.715 78.8437 652.424 79.7812 648.778 79.7812C646.194 79.7812 643.996 79.3542 642.184 78.5C640.392 77.6458 638.924 76.5729 637.778 75.2812C636.632 73.9687 635.757 72.6458 635.153 71.3125H634.746V97H621.434ZM634.465 55C634.465 57.8542 634.861 60.3437 635.653 62.4687C636.444 64.5937 637.59 66.25 639.09 67.4375C640.59 68.6042 642.413 69.1875 644.559 69.1875C646.726 69.1875 648.559 68.5937 650.059 67.4063C651.559 66.1979 652.694 64.5312 653.465 62.4062C654.257 60.2604 654.653 57.7917 654.653 55C654.653 52.2292 654.267 49.7917 653.496 47.6875C652.726 45.5833 651.59 43.9375 650.09 42.75C648.59 41.5625 646.746 40.9687 644.559 40.9687C642.392 40.9687 640.559 41.5417 639.059 42.6875C637.58 43.8333 636.444 45.4583 635.653 47.5625C634.861 49.6667 634.465 52.1458 634.465 55ZM695.289 79.9375C690.435 79.9375 686.237 78.9062 682.695 76.8437C679.174 74.7604 676.456 71.8646 674.539 68.1562C672.622 64.4271 671.664 60.1042 671.664 55.1875C671.664 50.2292 672.622 45.8958 674.539 42.1875C676.456 38.4583 679.174 35.5625 682.695 33.5C686.237 31.4167 690.435 30.375 695.289 30.375C700.143 30.375 704.331 31.4167 707.851 33.5C711.393 35.5625 714.122 38.4583 716.039 42.1875C717.956 45.8958 718.914 50.2292 718.914 55.1875C718.914 60.1042 717.956 64.4271 716.039 68.1562C714.122 71.8646 711.393 74.7604 707.851 76.8437C704.331 78.9062 700.143 79.9375 695.289 79.9375ZM695.351 69.625C697.56 69.625 699.404 69 700.883 67.75C702.362 66.4792 703.476 64.75 704.226 62.5625C704.997 60.375 705.383 57.8854 705.383 55.0937C705.383 52.3021 704.997 49.8125 704.226 47.625C703.476 45.4375 702.362 43.7083 700.883 42.4375C699.404 41.1667 697.56 40.5312 695.351 40.5312C693.122 40.5312 691.247 41.1667 689.726 42.4375C688.226 43.7083 687.091 45.4375 686.32 47.625C685.57 49.8125 685.195 52.3021 685.195 55.0937C685.195 57.8854 685.57 60.375 686.32 62.5625C687.091 64.75 688.226 66.4792 689.726 67.75C691.247 69 693.122 69.625 695.351 69.625ZM749.581 31V41H720.675V31H749.581ZM727.238 19.5H740.55V64.25C740.55 65.4792 740.738 66.4375 741.113 67.125C741.488 67.7917 742.009 68.2604 742.675 68.5312C743.363 68.8021 744.154 68.9375 745.05 68.9375C745.675 68.9375 746.3 68.8854 746.925 68.7812C747.55 68.6562 748.029 68.5625 748.363 68.5L750.456 78.4062C749.79 78.6146 748.852 78.8542 747.644 79.125C746.436 79.4167 744.967 79.5938 743.238 79.6563C740.029 79.7813 737.217 79.3542 734.8 78.375C732.404 77.3958 730.54 75.875 729.206 73.8125C727.873 71.75 727.217 69.1458 727.238 66V19.5ZM776.093 79.9375C771.155 79.9375 766.905 78.9375 763.343 76.9375C759.801 74.9167 757.072 72.0625 755.155 68.375C753.238 64.6667 752.28 60.2812 752.28 55.2187C752.28 50.2812 753.238 45.9479 755.155 42.2188C757.072 38.4896 759.77 35.5833 763.249 33.5C766.749 31.4167 770.853 30.375 775.561 30.375C778.728 30.375 781.676 30.8854 784.405 31.9062C787.155 32.9062 789.551 34.4167 791.593 36.4375C793.655 38.4583 795.259 41 796.405 44.0625C797.551 47.1042 798.124 50.6667 798.124 54.75V58.4062H757.593V50.1562H785.593C785.593 48.2396 785.176 46.5417 784.343 45.0625C783.509 43.5833 782.353 42.4271 780.874 41.5937C779.416 40.7396 777.718 40.3125 775.78 40.3125C773.759 40.3125 771.968 40.7812 770.405 41.7187C768.863 42.6354 767.655 43.875 766.78 45.4375C765.905 46.9792 765.457 48.6979 765.436 50.5937V58.4375C765.436 60.8125 765.874 62.8646 766.749 64.5937C767.645 66.3229 768.905 67.6562 770.53 68.5937C772.155 69.5312 774.082 70 776.311 70C777.791 70 779.145 69.7917 780.374 69.375C781.603 68.9583 782.655 68.3333 783.53 67.5C784.405 66.6667 785.072 65.6458 785.53 64.4375L797.843 65.25C797.218 68.2083 795.936 70.7917 793.999 73C792.082 75.1875 789.603 76.8958 786.561 78.125C783.541 79.3333 780.051 79.9375 776.093 79.9375ZM816.604 51.25V79H803.291V31H815.979V39.4688H816.541C817.604 36.6771 819.385 34.4687 821.885 32.8437C824.385 31.1979 827.416 30.375 830.979 30.375C834.312 30.375 837.218 31.1042 839.698 32.5625C842.177 34.0208 844.104 36.1042 845.479 38.8125C846.854 41.5 847.541 44.7083 847.541 48.4375V79H834.229V50.8125C834.25 47.875 833.5 45.5833 831.979 43.9375C830.458 42.2708 828.364 41.4375 825.698 41.4375C823.906 41.4375 822.323 41.8229 820.948 42.5937C819.593 43.3646 818.531 44.4896 817.76 45.9687C817.01 47.4271 816.625 49.1875 816.604 51.25ZM880.045 31V41H851.139V31H880.045ZM857.701 19.5H871.014V64.25C871.014 65.4792 871.201 66.4375 871.576 67.125C871.951 67.7917 872.472 68.2604 873.139 68.5312C873.826 68.8021 874.618 68.9375 875.514 68.9375C876.139 68.9375 876.764 68.8854 877.389 68.7812C878.014 68.6562 878.493 68.5625 878.826 68.5L880.92 78.4062C880.253 78.6146 879.316 78.8542 878.107 79.125C876.899 79.4167 875.43 79.5938 873.701 79.6563C870.493 79.7813 867.68 79.3542 865.264 78.375C862.868 77.3958 861.003 75.875 859.67 73.8125C858.336 71.75 857.68 69.1458 857.701 66V19.5ZM885.197 79V31H898.509V79H885.197ZM891.884 24.8125C889.905 24.8125 888.207 24.1562 886.791 22.8437C885.395 21.5104 884.697 19.9167 884.697 18.0625C884.697 16.2292 885.395 14.6562 886.791 13.3438C888.207 12.0104 889.905 11.3437 891.884 11.3437C893.863 11.3437 895.551 12.0104 896.947 13.3438C898.363 14.6562 899.072 16.2292 899.072 18.0625C899.072 19.9167 898.363 21.5104 896.947 22.8437C895.551 24.1562 893.863 24.8125 891.884 24.8125ZM919.341 79.9063C916.278 79.9063 913.549 79.375 911.153 78.3125C908.757 77.2292 906.862 75.6354 905.466 73.5312C904.091 71.4063 903.403 68.7604 903.403 65.5938C903.403 62.9271 903.893 60.6875 904.872 58.875C905.851 57.0625 907.185 55.6042 908.872 54.5C910.56 53.3958 912.476 52.5625 914.622 52C916.789 51.4375 919.06 51.0417 921.435 50.8125C924.226 50.5208 926.476 50.25 928.185 50C929.893 49.7292 931.132 49.3333 931.903 48.8125C932.674 48.2917 933.06 47.5208 933.06 46.5V46.3125C933.06 44.3333 932.435 42.8021 931.185 41.7187C929.955 40.6354 928.205 40.0937 925.935 40.0937C923.539 40.0937 921.632 40.625 920.216 41.6875C918.799 42.7292 917.862 44.0417 917.403 45.625L905.091 44.625C905.716 41.7083 906.945 39.1875 908.778 37.0625C910.612 34.9167 912.976 33.2708 915.872 32.125C918.789 30.9583 922.164 30.375 925.997 30.375C928.664 30.375 931.216 30.6875 933.653 31.3125C936.112 31.9375 938.289 32.9062 940.185 34.2187C942.101 35.5312 943.612 37.2187 944.716 39.2812C945.82 41.3229 946.372 43.7708 946.372 46.625V79H933.747V72.3438H933.372C932.601 73.8438 931.57 75.1667 930.278 76.3125C928.987 77.4375 927.435 78.3229 925.622 78.9687C923.81 79.5938 921.716 79.9063 919.341 79.9063ZM923.153 70.7187C925.112 70.7187 926.841 70.3333 928.341 69.5625C929.841 68.7708 931.018 67.7083 931.872 66.375C932.726 65.0417 933.153 63.5312 933.153 61.8437V56.75C932.737 57.0208 932.164 57.2708 931.435 57.5C930.726 57.7083 929.924 57.9062 929.028 58.0937C928.132 58.2604 927.237 58.4167 926.341 58.5625C925.445 58.6875 924.632 58.8021 923.903 58.9062C922.341 59.1354 920.976 59.5 919.81 60C918.643 60.5 917.737 61.1771 917.091 62.0313C916.445 62.8646 916.122 63.9062 916.122 65.1562C916.122 66.9688 916.778 68.3542 918.091 69.3125C919.424 70.25 921.112 70.7187 923.153 70.7187ZM966.493 15V79H953.18V15H966.493ZM29.648 173.938C24.7938 173.938 20.5959 172.906 17.0542 170.844C13.5334 168.76 10.8146 165.865 8.89798 162.156C6.98131 158.427 6.02298 154.104 6.02298 149.187C6.02298 144.229 6.98131 139.896 8.89798 136.187C10.8146 132.458 13.5334 129.562 17.0542 127.5C20.5959 125.417 24.7938 124.375 29.648 124.375C34.5021 124.375 38.6896 125.417 42.2105 127.5C45.7521 129.562 48.4813 132.458 50.398 136.187C52.3146 139.896 53.273 144.229 53.273 149.187C53.273 154.104 52.3146 158.427 50.398 162.156C48.4813 165.865 45.7521 168.76 42.2105 170.844C38.6896 172.906 34.5021 173.938 29.648 173.938ZM29.7105 163.625C31.9188 163.625 33.7626 163 35.2417 161.75C36.7209 160.479 37.8355 158.75 38.5855 156.562C39.3563 154.375 39.7417 151.885 39.7417 149.094C39.7417 146.302 39.3563 143.813 38.5855 141.625C37.8355 139.437 36.7209 137.708 35.2417 136.437C33.7626 135.167 31.9188 134.531 29.7105 134.531C27.4813 134.531 25.6063 135.167 24.0855 136.437C22.5855 137.708 21.4501 139.437 20.6792 141.625C19.9292 143.813 19.5542 146.302 19.5542 149.094C19.5542 151.885 19.9292 154.375 20.6792 156.562C21.4501 158.75 22.5855 160.479 24.0855 161.75C25.6063 163 27.4813 163.625 29.7105 163.625ZM84.2217 125V135H54.5967V125H84.2217ZM61.378 173V121.531C61.378 118.052 62.0551 115.167 63.4092 112.875C64.7842 110.583 66.6592 108.865 69.0342 107.719C71.4092 106.573 74.1071 106 77.128 106C79.1696 106 81.0342 106.156 82.7217 106.469C84.4301 106.781 85.7009 107.062 86.5342 107.312L84.1592 117.312C83.6384 117.146 82.9926 116.99 82.2217 116.844C81.4717 116.698 80.7009 116.625 79.9092 116.625C77.9509 116.625 76.5863 117.083 75.8155 118C75.0446 118.896 74.6592 120.156 74.6592 121.781V173H61.378ZM116.963 173H102.463L124.557 109H141.994L164.057 173H149.557L133.525 123.625H133.025L116.963 173ZM116.057 147.844H150.307V158.406H116.057V147.844ZM181.771 109V173H168.24V109H181.771ZM231.512 125V135H202.606V125H231.512ZM209.169 113.5H222.481V158.25C222.481 159.479 222.669 160.437 223.044 161.125C223.419 161.792 223.939 162.26 224.606 162.531C225.294 162.802 226.085 162.937 226.981 162.937C227.606 162.937 228.231 162.885 228.856 162.781C229.481 162.656 229.96 162.562 230.294 162.5L232.387 172.406C231.721 172.615 230.783 172.854 229.575 173.125C228.367 173.417 226.898 173.594 225.169 173.656C221.96 173.781 219.148 173.354 216.731 172.375C214.335 171.396 212.471 169.875 211.137 167.812C209.804 165.75 209.148 163.146 209.169 160V113.5ZM251.008 145.25V173H237.695V109H250.633V133.469H251.195C252.279 130.635 254.029 128.417 256.445 126.812C258.862 125.187 261.893 124.375 265.539 124.375C268.873 124.375 271.779 125.104 274.258 126.562C276.758 128 278.695 130.073 280.07 132.781C281.466 135.469 282.154 138.687 282.133 142.437V173H268.82V144.812C268.841 141.854 268.091 139.552 266.57 137.906C265.07 136.26 262.966 135.437 260.258 135.437C258.445 135.437 256.841 135.823 255.445 136.594C254.07 137.365 252.987 138.49 252.195 139.969C251.425 141.427 251.029 143.188 251.008 145.25ZM289.09 173V125H301.996V133.375H302.496C303.371 130.396 304.84 128.146 306.902 126.625C308.965 125.083 311.34 124.312 314.027 124.312C314.694 124.312 315.412 124.354 316.183 124.437C316.954 124.521 317.631 124.635 318.215 124.781V136.594C317.59 136.406 316.725 136.24 315.621 136.094C314.517 135.948 313.506 135.875 312.59 135.875C310.631 135.875 308.881 136.302 307.34 137.156C305.819 137.99 304.61 139.156 303.715 140.656C302.84 142.156 302.402 143.885 302.402 145.844V173H289.09ZM341.03 173.938C336.176 173.938 331.978 172.906 328.437 170.844C324.916 168.76 322.197 165.865 320.28 162.156C318.364 158.427 317.405 154.104 317.405 149.187C317.405 144.229 318.364 139.896 320.28 136.187C322.197 132.458 324.916 129.562 328.437 127.5C331.978 125.417 336.176 124.375 341.03 124.375C345.885 124.375 350.072 125.417 353.593 127.5C357.135 129.562 359.864 132.458 361.78 136.187C363.697 139.896 364.655 144.229 364.655 149.187C364.655 154.104 363.697 158.427 361.78 162.156C359.864 165.865 357.135 168.76 353.593 170.844C350.072 172.906 345.885 173.938 341.03 173.938ZM341.093 163.625C343.301 163.625 345.145 163 346.624 161.75C348.103 160.479 349.218 158.75 349.968 156.562C350.739 154.375 351.124 151.885 351.124 149.094C351.124 146.302 350.739 143.813 349.968 141.625C349.218 139.437 348.103 137.708 346.624 136.437C345.145 135.167 343.301 134.531 341.093 134.531C338.864 134.531 336.989 135.167 335.468 136.437C333.968 137.708 332.833 139.437 332.062 141.625C331.312 143.813 330.937 146.302 330.937 149.094C330.937 151.885 331.312 154.375 332.062 156.562C332.833 158.75 333.968 160.479 335.468 161.75C336.989 163 338.864 163.625 341.093 163.625ZM400.573 152.562V125H413.885V173H401.104V164.281H400.604C399.521 167.094 397.719 169.354 395.198 171.062C392.698 172.771 389.646 173.625 386.042 173.625C382.833 173.625 380.01 172.896 377.573 171.438C375.135 169.979 373.229 167.906 371.854 165.219C370.5 162.531 369.813 159.312 369.792 155.562V125H383.104V153.187C383.125 156.021 383.885 158.26 385.385 159.906C386.885 161.552 388.896 162.375 391.417 162.375C393.021 162.375 394.521 162.01 395.917 161.281C397.313 160.531 398.438 159.427 399.292 157.969C400.167 156.51 400.594 154.708 400.573 152.562ZM442.639 192C438.326 192 434.628 191.406 431.545 190.219C428.483 189.052 426.045 187.458 424.233 185.438C422.42 183.417 421.243 181.146 420.701 178.625L433.014 176.969C433.389 177.927 433.983 178.823 434.795 179.656C435.608 180.49 436.681 181.156 438.014 181.656C439.368 182.177 441.014 182.438 442.951 182.438C445.847 182.438 448.233 181.729 450.108 180.313C452.004 178.917 452.951 176.573 452.951 173.281V164.5H452.389C451.806 165.833 450.931 167.094 449.764 168.281C448.597 169.469 447.097 170.437 445.264 171.187C443.431 171.937 441.243 172.312 438.701 172.312C435.097 172.312 431.816 171.479 428.858 169.812C425.92 168.125 423.576 165.552 421.826 162.094C420.097 158.615 419.233 154.219 419.233 148.906C419.233 143.469 420.118 138.927 421.889 135.281C423.66 131.635 426.014 128.906 428.951 127.094C431.91 125.281 435.149 124.375 438.67 124.375C441.358 124.375 443.608 124.833 445.42 125.75C447.233 126.646 448.691 127.771 449.795 129.125C450.92 130.458 451.785 131.771 452.389 133.062H452.889V125H466.108V173.469C466.108 177.552 465.108 180.969 463.108 183.719C461.108 186.469 458.337 188.531 454.795 189.906C451.274 191.302 447.222 192 442.639 192ZM442.92 162.312C445.066 162.312 446.878 161.781 448.358 160.719C449.858 159.635 451.003 158.094 451.795 156.094C452.608 154.073 453.014 151.656 453.014 148.844C453.014 146.031 452.618 143.594 451.826 141.531C451.035 139.448 449.889 137.833 448.389 136.687C446.889 135.542 445.066 134.969 442.92 134.969C440.733 134.969 438.889 135.562 437.389 136.75C435.889 137.917 434.753 139.542 433.983 141.625C433.212 143.708 432.826 146.115 432.826 148.844C432.826 151.615 433.212 154.01 433.983 156.031C434.774 158.031 435.91 159.583 437.389 160.687C438.889 161.771 440.733 162.312 442.92 162.312ZM486.494 145.25V173H473.181V109H486.119V133.469H486.681C487.765 130.635 489.515 128.417 491.931 126.812C494.348 125.187 497.379 124.375 501.025 124.375C504.359 124.375 507.265 125.104 509.744 126.562C512.244 128 514.181 130.073 515.556 132.781C516.952 135.469 517.64 138.687 517.619 142.437V173H504.306V144.812C504.327 141.854 503.577 139.552 502.056 137.906C500.556 136.26 498.452 135.437 495.744 135.437C493.931 135.437 492.327 135.823 490.931 136.594C489.556 137.365 488.473 138.49 487.681 139.969C486.911 141.427 486.515 143.188 486.494 145.25ZM563.048 192C558.735 192 555.037 191.406 551.954 190.219C548.891 189.052 546.454 187.458 544.641 185.438C542.829 183.417 541.652 181.146 541.11 178.625L553.423 176.969C553.798 177.927 554.391 178.823 555.204 179.656C556.016 180.49 557.089 181.156 558.423 181.656C559.777 182.177 561.423 182.438 563.36 182.438C566.256 182.438 568.641 181.729 570.516 180.313C572.412 178.917 573.36 176.573 573.36 173.281V164.5H572.798C572.214 165.833 571.339 167.094 570.173 168.281C569.006 169.469 567.506 170.437 565.673 171.187C563.839 171.937 561.652 172.312 559.11 172.312C555.506 172.312 552.225 171.479 549.266 169.812C546.329 168.125 543.985 165.552 542.235 162.094C540.506 158.615 539.641 154.219 539.641 148.906C539.641 143.469 540.527 138.927 542.298 135.281C544.068 131.635 546.423 128.906 549.36 127.094C552.318 125.281 555.558 124.375 559.079 124.375C561.766 124.375 564.016 124.833 565.829 125.75C567.641 126.646 569.1 127.771 570.204 129.125C571.329 130.458 572.193 131.771 572.798 133.062H573.298V125H586.516V173.469C586.516 177.552 585.516 180.969 583.516 183.719C581.516 186.469 578.746 188.531 575.204 189.906C571.683 191.302 567.631 192 563.048 192ZM563.329 162.312C565.475 162.312 567.287 161.781 568.766 160.719C570.266 159.635 571.412 158.094 572.204 156.094C573.016 154.073 573.423 151.656 573.423 148.844C573.423 146.031 573.027 143.594 572.235 141.531C571.443 139.448 570.298 137.833 568.798 136.687C567.298 135.542 565.475 134.969 563.329 134.969C561.141 134.969 559.298 135.562 557.798 136.75C556.298 137.917 555.162 139.542 554.391 141.625C553.621 143.708 553.235 146.115 553.235 148.844C553.235 151.615 553.621 154.01 554.391 156.031C555.183 158.031 556.318 159.583 557.798 160.687C559.298 161.771 561.141 162.312 563.329 162.312ZM593.59 173V125H606.496V133.375H606.996C607.871 130.396 609.34 128.146 611.403 126.625C613.465 125.083 615.84 124.312 618.528 124.312C619.194 124.312 619.913 124.354 620.684 124.437C621.455 124.521 622.132 124.635 622.715 124.781V136.594C622.09 136.406 621.226 136.24 620.121 136.094C619.017 135.948 618.007 135.875 617.09 135.875C615.132 135.875 613.382 136.302 611.84 137.156C610.319 137.99 609.111 139.156 608.215 140.656C607.34 142.156 606.903 143.885 606.903 145.844V173H593.59ZM638.391 173.906C635.328 173.906 632.599 173.375 630.203 172.312C627.807 171.229 625.911 169.635 624.516 167.531C623.141 165.406 622.453 162.76 622.453 159.594C622.453 156.927 622.943 154.687 623.922 152.875C624.901 151.063 626.234 149.604 627.922 148.5C629.609 147.396 631.526 146.562 633.672 146C635.838 145.437 638.109 145.042 640.484 144.812C643.276 144.521 645.526 144.25 647.234 144C648.943 143.729 650.182 143.333 650.953 142.812C651.724 142.292 652.109 141.521 652.109 140.5V140.312C652.109 138.333 651.484 136.802 650.234 135.719C649.005 134.635 647.255 134.094 644.984 134.094C642.588 134.094 640.682 134.625 639.266 135.687C637.849 136.729 636.911 138.042 636.453 139.625L624.141 138.625C624.766 135.708 625.995 133.187 627.828 131.062C629.661 128.917 632.026 127.271 634.922 126.125C637.838 124.958 641.213 124.375 645.047 124.375C647.713 124.375 650.266 124.687 652.703 125.312C655.161 125.937 657.338 126.906 659.234 128.219C661.151 129.531 662.661 131.219 663.766 133.281C664.87 135.323 665.422 137.771 665.422 140.625V173H652.797V166.344H652.422C651.651 167.844 650.62 169.167 649.328 170.312C648.036 171.437 646.484 172.323 644.672 172.969C642.859 173.594 640.766 173.906 638.391 173.906ZM642.203 164.719C644.161 164.719 645.891 164.333 647.391 163.562C648.891 162.771 650.068 161.708 650.922 160.375C651.776 159.042 652.203 157.531 652.203 155.844V150.75C651.786 151.021 651.213 151.271 650.484 151.5C649.776 151.708 648.974 151.906 648.078 152.094C647.182 152.26 646.286 152.417 645.391 152.562C644.495 152.687 643.682 152.802 642.953 152.906C641.391 153.135 640.026 153.5 638.859 154C637.693 154.5 636.786 155.177 636.141 156.031C635.495 156.865 635.172 157.906 635.172 159.156C635.172 160.969 635.828 162.354 637.141 163.312C638.474 164.25 640.161 164.719 642.203 164.719ZM712.167 138.687L699.98 139.437C699.772 138.396 699.324 137.458 698.636 136.625C697.949 135.771 697.042 135.094 695.917 134.594C694.813 134.073 693.49 133.812 691.949 133.812C689.886 133.812 688.147 134.25 686.73 135.125C685.313 135.979 684.605 137.125 684.605 138.562C684.605 139.708 685.063 140.677 685.98 141.469C686.897 142.26 688.469 142.896 690.699 143.375L699.386 145.125C704.053 146.083 707.532 147.625 709.824 149.75C712.115 151.875 713.261 154.667 713.261 158.125C713.261 161.271 712.334 164.031 710.48 166.406C708.647 168.781 706.126 170.635 702.917 171.969C699.73 173.281 696.053 173.938 691.886 173.938C685.532 173.938 680.469 172.615 676.699 169.969C672.949 167.302 670.751 163.677 670.105 159.094L683.199 158.406C683.594 160.344 684.553 161.823 686.074 162.844C687.594 163.844 689.542 164.344 691.917 164.344C694.251 164.344 696.126 163.896 697.542 163C698.98 162.083 699.709 160.906 699.73 159.469C699.709 158.26 699.199 157.271 698.199 156.5C697.199 155.708 695.657 155.104 693.574 154.687L685.261 153.031C680.574 152.094 677.084 150.469 674.792 148.156C672.522 145.844 671.386 142.896 671.386 139.312C671.386 136.229 672.219 133.573 673.886 131.344C675.574 129.115 677.938 127.396 680.98 126.187C684.042 124.979 687.626 124.375 691.73 124.375C697.792 124.375 702.563 125.656 706.042 128.219C709.542 130.781 711.584 134.271 712.167 138.687ZM758.061 138.687L745.874 139.437C745.666 138.396 745.218 137.458 744.53 136.625C743.843 135.771 742.936 135.094 741.811 134.594C740.707 134.073 739.384 133.812 737.843 133.812C735.78 133.812 734.041 134.25 732.624 135.125C731.207 135.979 730.499 137.125 730.499 138.562C730.499 139.708 730.957 140.677 731.874 141.469C732.791 142.26 734.363 142.896 736.593 143.375L745.28 145.125C749.947 146.083 753.426 147.625 755.718 149.75C758.009 151.875 759.155 154.667 759.155 158.125C759.155 161.271 758.228 164.031 756.374 166.406C754.541 168.781 752.02 170.635 748.811 171.969C745.624 173.281 741.947 173.938 737.78 173.938C731.426 173.938 726.363 172.615 722.593 169.969C718.843 167.302 716.645 163.677 715.999 159.094L729.093 158.406C729.488 160.344 730.447 161.823 731.968 162.844C733.488 163.844 735.436 164.344 737.811 164.344C740.145 164.344 742.02 163.896 743.436 163C744.874 162.083 745.603 160.906 745.624 159.469C745.603 158.26 745.093 157.271 744.093 156.5C743.093 155.708 741.551 155.104 739.468 154.687L731.155 153.031C726.468 152.094 722.978 150.469 720.686 148.156C718.416 145.844 717.28 142.896 717.28 139.312C717.28 136.229 718.113 133.573 719.78 131.344C721.468 129.115 723.832 127.396 726.874 126.187C729.936 124.979 733.52 124.375 737.624 124.375C743.686 124.375 748.457 125.656 751.936 128.219C755.436 130.781 757.478 134.271 758.061 138.687ZM764.018 173V125H776.924V133.375H777.424C778.299 130.396 779.768 128.146 781.83 126.625C783.893 125.083 786.268 124.312 788.955 124.312C789.622 124.312 790.341 124.354 791.112 124.437C791.883 124.521 792.56 124.635 793.143 124.781V136.594C792.518 136.406 791.653 136.24 790.549 136.094C789.445 135.948 788.435 135.875 787.518 135.875C785.56 135.875 783.81 136.302 782.268 137.156C780.747 137.99 779.539 139.156 778.643 140.656C777.768 142.156 777.33 143.885 777.33 145.844V173H764.018ZM815.959 173.938C811.105 173.938 806.907 172.906 803.365 170.844C799.844 168.76 797.126 165.865 795.209 162.156C793.292 158.427 792.334 154.104 792.334 149.187C792.334 144.229 793.292 139.896 795.209 136.187C797.126 132.458 799.844 129.562 803.365 127.5C806.907 125.417 811.105 124.375 815.959 124.375C820.813 124.375 825.001 125.417 828.521 127.5C832.063 129.562 834.792 132.458 836.709 136.187C838.626 139.896 839.584 144.229 839.584 149.187C839.584 154.104 838.626 158.427 836.709 162.156C834.792 165.865 832.063 168.76 828.521 170.844C825.001 172.906 820.813 173.938 815.959 173.938ZM816.021 163.625C818.23 163.625 820.073 163 821.553 161.75C823.032 160.479 824.146 158.75 824.896 156.562C825.667 154.375 826.053 151.885 826.053 149.094C826.053 146.302 825.667 143.813 824.896 141.625C824.146 139.437 823.032 137.708 821.553 136.437C820.073 135.167 818.23 134.531 816.021 134.531C813.792 134.531 811.917 135.167 810.396 136.437C808.896 137.708 807.761 139.437 806.99 141.625C806.24 143.813 805.865 146.302 805.865 149.094C805.865 151.885 806.24 154.375 806.99 156.562C807.761 158.75 808.896 160.479 810.396 161.75C811.917 163 813.792 163.625 816.021 163.625ZM866.408 173.938C861.554 173.938 857.356 172.906 853.814 170.844C850.293 168.76 847.574 165.865 845.658 162.156C843.741 158.427 842.783 154.104 842.783 149.187C842.783 144.229 843.741 139.896 845.658 136.187C847.574 132.458 850.293 129.562 853.814 127.5C857.356 125.417 861.554 124.375 866.408 124.375C871.262 124.375 875.449 125.417 878.97 127.5C882.512 129.562 885.241 132.458 887.158 136.187C889.074 139.896 890.033 144.229 890.033 149.187C890.033 154.104 889.074 158.427 887.158 162.156C885.241 165.865 882.512 168.76 878.97 170.844C875.449 172.906 871.262 173.938 866.408 173.938ZM866.47 163.625C868.679 163.625 870.522 163 872.001 161.75C873.481 160.479 874.595 158.75 875.345 156.562C876.116 154.375 876.501 151.885 876.501 149.094C876.501 146.302 876.116 143.813 875.345 141.625C874.595 139.437 873.481 137.708 872.001 136.437C870.522 135.167 868.679 134.531 866.47 134.531C864.241 134.531 862.366 135.167 860.845 136.437C859.345 137.708 858.21 139.437 857.439 141.625C856.689 143.813 856.314 146.302 856.314 149.094C856.314 151.885 856.689 154.375 857.439 156.562C858.21 158.75 859.345 160.479 860.845 161.75C862.366 163 864.241 163.625 866.47 163.625ZM920.7 125V135H891.794V125H920.7ZM898.356 113.5H911.669V158.25C911.669 159.479 911.856 160.437 912.231 161.125C912.606 161.792 913.127 162.26 913.794 162.531C914.481 162.802 915.273 162.937 916.169 162.937C916.794 162.937 917.419 162.885 918.044 162.781C918.669 162.656 919.148 162.562 919.481 162.5L921.575 172.406C920.909 172.615 919.971 172.854 918.763 173.125C917.554 173.417 916.086 173.594 914.356 173.656C911.148 173.781 908.336 173.354 905.919 172.375C903.523 171.396 901.659 169.875 900.325 167.812C898.992 165.75 898.336 163.146 898.356 160V113.5ZM965.188 138.687L953 139.437C952.792 138.396 952.344 137.458 951.657 136.625C950.969 135.771 950.063 135.094 948.938 134.594C947.834 134.073 946.511 133.812 944.969 133.812C942.907 133.812 941.167 134.25 939.75 135.125C938.334 135.979 937.625 137.125 937.625 138.562C937.625 139.708 938.084 140.677 939 141.469C939.917 142.26 941.49 142.896 943.719 143.375L952.407 145.125C957.073 146.083 960.553 147.625 962.844 149.75C965.136 151.875 966.282 154.667 966.282 158.125C966.282 161.271 965.355 164.031 963.5 166.406C961.667 168.781 959.146 170.635 955.938 171.969C952.75 173.281 949.073 173.938 944.907 173.938C938.553 173.938 933.49 172.615 929.719 169.969C925.969 167.302 923.771 163.677 923.125 159.094L936.219 158.406C936.615 160.344 937.573 161.823 939.094 162.844C940.615 163.844 942.563 164.344 944.938 164.344C947.271 164.344 949.146 163.896 950.563 163C952 162.083 952.73 160.906 952.75 159.469C952.73 158.26 952.219 157.271 951.219 156.5C950.219 155.708 948.678 155.104 946.594 154.687L938.282 153.031C933.594 152.094 930.105 150.469 927.813 148.156C925.542 145.844 924.407 142.896 924.407 139.312C924.407 136.229 925.24 133.573 926.907 131.344C928.594 129.115 930.959 127.396 934 126.187C937.063 124.979 940.646 124.375 944.75 124.375C950.813 124.375 955.584 125.656 959.063 128.219C962.563 130.781 964.605 134.271 965.188 138.687ZM256.949 267.938C252.012 267.938 247.762 266.938 244.199 264.938C240.658 262.917 237.929 260.062 236.012 256.375C234.095 252.667 233.137 248.281 233.137 243.219C233.137 238.281 234.095 233.948 236.012 230.219C237.929 226.49 240.626 223.583 244.106 221.5C247.606 219.417 251.71 218.375 256.418 218.375C259.585 218.375 262.533 218.885 265.262 219.906C268.012 220.906 270.408 222.417 272.449 224.437C274.512 226.458 276.116 229 277.262 232.062C278.408 235.104 278.981 238.667 278.981 242.75V246.406H238.449V238.156H266.449C266.449 236.24 266.033 234.542 265.199 233.063C264.366 231.583 263.21 230.427 261.731 229.594C260.272 228.74 258.574 228.312 256.637 228.312C254.616 228.312 252.824 228.781 251.262 229.719C249.72 230.635 248.512 231.875 247.637 233.437C246.762 234.979 246.314 236.698 246.293 238.594V246.437C246.293 248.812 246.731 250.865 247.606 252.594C248.501 254.323 249.762 255.656 251.387 256.594C253.012 257.531 254.939 258 257.168 258C258.647 258 260.001 257.792 261.231 257.375C262.46 256.958 263.512 256.333 264.387 255.5C265.262 254.667 265.929 253.646 266.387 252.438L278.699 253.25C278.074 256.208 276.793 258.792 274.856 261C272.939 263.187 270.46 264.896 267.418 266.125C264.397 267.333 260.908 267.938 256.949 267.938ZM297.461 239.25V267H284.148V219H296.836V227.469H297.398C298.461 224.677 300.242 222.469 302.742 220.844C305.242 219.198 308.273 218.375 311.836 218.375C315.169 218.375 318.075 219.104 320.554 220.562C323.034 222.021 324.961 224.104 326.336 226.812C327.711 229.5 328.398 232.708 328.398 236.437V267H315.086V238.812C315.106 235.875 314.356 233.583 312.836 231.938C311.315 230.271 309.221 229.437 306.554 229.437C304.763 229.437 303.179 229.823 301.804 230.594C300.45 231.365 299.388 232.49 298.617 233.969C297.867 235.427 297.481 237.188 297.461 239.25ZM356.995 286C352.683 286 348.985 285.406 345.902 284.219C342.839 283.052 340.402 281.458 338.589 279.438C336.777 277.417 335.599 275.146 335.058 272.625L347.37 270.969C347.745 271.927 348.339 272.823 349.152 273.656C349.964 274.49 351.037 275.156 352.37 275.656C353.724 276.177 355.37 276.438 357.308 276.438C360.204 276.438 362.589 275.729 364.464 274.313C366.36 272.917 367.308 270.573 367.308 267.281V258.5H366.745C366.162 259.833 365.287 261.094 364.12 262.281C362.954 263.469 361.454 264.437 359.62 265.187C357.787 265.937 355.599 266.312 353.058 266.312C349.454 266.312 346.172 265.479 343.214 263.812C340.277 262.125 337.933 259.552 336.183 256.094C334.454 252.615 333.589 248.219 333.589 242.906C333.589 237.469 334.474 232.927 336.245 229.281C338.016 225.635 340.37 222.906 343.308 221.094C346.266 219.281 349.506 218.375 353.027 218.375C355.714 218.375 357.964 218.833 359.777 219.75C361.589 220.646 363.047 221.771 364.152 223.125C365.277 224.458 366.141 225.771 366.745 227.062H367.245V219H380.464V267.469C380.464 271.552 379.464 274.969 377.464 277.719C375.464 280.469 372.693 282.531 369.152 283.906C365.631 285.302 361.579 286 356.995 286ZM357.277 256.312C359.422 256.312 361.235 255.781 362.714 254.719C364.214 253.635 365.36 252.094 366.152 250.094C366.964 248.073 367.37 245.656 367.37 242.844C367.37 240.031 366.974 237.594 366.183 235.531C365.391 233.448 364.245 231.833 362.745 230.687C361.245 229.542 359.422 228.969 357.277 228.969C355.089 228.969 353.245 229.562 351.745 230.75C350.245 231.917 349.11 233.542 348.339 235.625C347.568 237.708 347.183 240.115 347.183 242.844C347.183 245.615 347.568 248.01 348.339 250.031C349.131 252.031 350.266 253.583 351.745 254.687C353.245 255.771 355.089 256.312 357.277 256.312ZM401.225 267.906C398.163 267.906 395.434 267.375 393.038 266.312C390.642 265.229 388.746 263.635 387.35 261.531C385.975 259.406 385.288 256.76 385.288 253.594C385.288 250.927 385.777 248.687 386.757 246.875C387.736 245.063 389.069 243.604 390.757 242.5C392.444 241.396 394.361 240.562 396.507 240C398.673 239.437 400.944 239.042 403.319 238.812C406.111 238.521 408.361 238.25 410.069 238C411.777 237.729 413.017 237.333 413.788 236.812C414.559 236.292 414.944 235.521 414.944 234.5V234.312C414.944 232.333 414.319 230.802 413.069 229.719C411.84 228.635 410.09 228.094 407.819 228.094C405.423 228.094 403.517 228.625 402.1 229.687C400.684 230.729 399.746 232.042 399.288 233.625L386.975 232.625C387.6 229.708 388.829 227.187 390.663 225.062C392.496 222.917 394.861 221.271 397.757 220.125C400.673 218.958 404.048 218.375 407.882 218.375C410.548 218.375 413.1 218.687 415.538 219.312C417.996 219.937 420.173 220.906 422.069 222.219C423.986 223.531 425.496 225.219 426.6 227.281C427.704 229.323 428.257 231.771 428.257 234.625V267H415.632V260.344H415.257C414.486 261.844 413.454 263.167 412.163 264.312C410.871 265.437 409.319 266.323 407.507 266.969C405.694 267.594 403.6 267.906 401.225 267.906ZM405.038 258.719C406.996 258.719 408.725 258.333 410.225 257.562C411.725 256.771 412.902 255.708 413.757 254.375C414.611 253.042 415.038 251.531 415.038 249.844V244.75C414.621 245.021 414.048 245.271 413.319 245.5C412.611 245.708 411.809 245.906 410.913 246.094C410.017 246.26 409.121 246.417 408.225 246.562C407.329 246.687 406.517 246.802 405.788 246.906C404.225 247.135 402.861 247.5 401.694 248C400.527 248.5 399.621 249.177 398.975 250.031C398.329 250.865 398.007 251.906 398.007 253.156C398.007 254.969 398.663 256.354 399.975 257.312C401.309 258.25 402.996 258.719 405.038 258.719ZM456.69 286C452.377 286 448.679 285.406 445.596 284.219C442.533 283.052 440.096 281.458 438.283 279.438C436.471 277.417 435.294 275.146 434.752 272.625L447.065 270.969C447.44 271.927 448.033 272.823 448.846 273.656C449.658 274.49 450.731 275.156 452.065 275.656C453.419 276.177 455.065 276.438 457.002 276.438C459.898 276.438 462.283 275.729 464.158 274.313C466.054 272.917 467.002 270.573 467.002 267.281V258.5H466.44C465.856 259.833 464.981 261.094 463.815 262.281C462.648 263.469 461.148 264.437 459.315 265.187C457.481 265.937 455.294 266.312 452.752 266.312C449.148 266.312 445.867 265.479 442.908 263.812C439.971 262.125 437.627 259.552 435.877 256.094C434.148 252.615 433.283 248.219 433.283 242.906C433.283 237.469 434.169 232.927 435.94 229.281C437.711 225.635 440.065 222.906 443.002 221.094C445.961 219.281 449.2 218.375 452.721 218.375C455.408 218.375 457.658 218.833 459.471 219.75C461.283 220.646 462.742 221.771 463.846 223.125C464.971 224.458 465.836 225.771 466.44 227.062H466.94V219H480.158V267.469C480.158 271.552 479.158 274.969 477.158 277.719C475.158 280.469 472.388 282.531 468.846 283.906C465.325 285.302 461.273 286 456.69 286ZM456.971 256.312C459.117 256.312 460.929 255.781 462.408 254.719C463.908 253.635 465.054 252.094 465.846 250.094C466.658 248.073 467.065 245.656 467.065 242.844C467.065 240.031 466.669 237.594 465.877 235.531C465.086 233.448 463.94 231.833 462.44 230.687C460.94 229.542 459.117 228.969 456.971 228.969C454.783 228.969 452.94 229.562 451.44 230.75C449.94 231.917 448.804 233.542 448.033 235.625C447.263 237.708 446.877 240.115 446.877 242.844C446.877 245.615 447.263 248.01 448.033 250.031C448.825 252.031 449.961 253.583 451.44 254.687C452.94 255.771 454.783 256.312 456.971 256.312ZM509.107 267.938C504.17 267.938 499.92 266.938 496.357 264.938C492.816 262.917 490.086 260.062 488.17 256.375C486.253 252.667 485.295 248.281 485.295 243.219C485.295 238.281 486.253 233.948 488.17 230.219C490.086 226.49 492.784 223.583 496.263 221.5C499.763 219.417 503.868 218.375 508.576 218.375C511.743 218.375 514.691 218.885 517.42 219.906C520.17 220.906 522.566 222.417 524.607 224.437C526.67 226.458 528.274 229 529.42 232.062C530.566 235.104 531.138 238.667 531.138 242.75V246.406H490.607V238.156H518.607C518.607 236.24 518.191 234.542 517.357 233.063C516.524 231.583 515.368 230.427 513.888 229.594C512.43 228.74 510.732 228.312 508.795 228.312C506.774 228.312 504.982 228.781 503.42 229.719C501.878 230.635 500.67 231.875 499.795 233.437C498.92 234.979 498.472 236.698 498.451 238.594V246.437C498.451 248.812 498.888 250.865 499.763 252.594C500.659 254.323 501.92 255.656 503.545 256.594C505.17 257.531 507.097 258 509.326 258C510.805 258 512.159 257.792 513.388 257.375C514.618 256.958 515.67 256.333 516.545 255.5C517.42 254.667 518.086 253.646 518.545 252.438L530.857 253.25C530.232 256.208 528.951 258.792 527.013 261C525.097 263.187 522.618 264.896 519.576 266.125C516.555 267.333 513.066 267.938 509.107 267.938ZM536.306 267V219H548.993V227.469H549.556C550.556 224.656 552.223 222.437 554.556 220.812C556.889 219.187 559.681 218.375 562.931 218.375C566.223 218.375 569.025 219.198 571.337 220.844C573.65 222.469 575.191 224.677 575.962 227.469H576.462C577.441 224.719 579.212 222.521 581.775 220.875C584.358 219.208 587.41 218.375 590.931 218.375C595.41 218.375 599.045 219.802 601.837 222.656C604.65 225.49 606.056 229.51 606.056 234.719V267H592.775V237.344C592.775 234.677 592.066 232.677 590.65 231.344C589.233 230.01 587.462 229.344 585.337 229.344C582.92 229.344 581.035 230.115 579.681 231.656C578.327 233.177 577.65 235.187 577.65 237.687V267H564.743V237.062C564.743 234.708 564.066 232.833 562.712 231.437C561.379 230.042 559.618 229.344 557.431 229.344C555.952 229.344 554.618 229.719 553.431 230.469C552.264 231.198 551.337 232.229 550.65 233.562C549.962 234.875 549.618 236.417 549.618 238.187V267H536.306ZM634.927 267.938C629.989 267.938 625.739 266.938 622.177 264.938C618.635 262.917 615.906 260.062 613.989 256.375C612.072 252.667 611.114 248.281 611.114 243.219C611.114 238.281 612.072 233.948 613.989 230.219C615.906 226.49 618.604 223.583 622.083 221.5C625.583 219.417 629.687 218.375 634.395 218.375C637.562 218.375 640.51 218.885 643.239 219.906C645.989 220.906 648.385 222.417 650.427 224.437C652.489 226.458 654.093 229 655.239 232.062C656.385 235.104 656.958 238.667 656.958 242.75V246.406H616.427V238.156H644.427C644.427 236.24 644.01 234.542 643.177 233.063C642.343 231.583 641.187 230.427 639.708 229.594C638.249 228.74 636.552 228.312 634.614 228.312C632.593 228.312 630.802 228.781 629.239 229.719C627.697 230.635 626.489 231.875 625.614 233.437C624.739 234.979 624.291 236.698 624.27 238.594V246.437C624.27 248.812 624.708 250.865 625.583 252.594C626.479 254.323 627.739 255.656 629.364 256.594C630.989 257.531 632.916 258 635.145 258C636.624 258 637.979 257.792 639.208 257.375C640.437 256.958 641.489 256.333 642.364 255.5C643.239 254.667 643.906 253.646 644.364 252.438L656.677 253.25C656.052 256.208 654.77 258.792 652.833 261C650.916 263.187 648.437 264.896 645.395 266.125C642.374 267.333 638.885 267.938 634.927 267.938ZM675.438 239.25V267H662.125V219H674.813V227.469H675.375C676.438 224.677 678.219 222.469 680.719 220.844C683.219 219.198 686.25 218.375 689.813 218.375C693.146 218.375 696.052 219.104 698.532 220.562C701.011 222.021 702.938 224.104 704.313 226.812C705.688 229.5 706.375 232.708 706.375 236.437V267H693.063V238.812C693.084 235.875 692.334 233.583 690.813 231.938C689.292 230.271 687.198 229.437 684.532 229.437C682.74 229.437 681.157 229.823 679.782 230.594C678.427 231.365 677.365 232.49 676.594 233.969C675.844 235.427 675.459 237.188 675.438 239.25ZM738.879 219V229H709.973V219H738.879ZM716.535 207.5H729.848V252.25C729.848 253.479 730.035 254.437 730.41 255.125C730.785 255.792 731.306 256.26 731.973 256.531C732.66 256.802 733.452 256.937 734.348 256.937C734.973 256.937 735.598 256.885 736.223 256.781C736.848 256.656 737.327 256.562 737.66 256.5L739.754 266.406C739.087 266.615 738.15 266.854 736.941 267.125C735.733 267.417 734.264 267.594 732.535 267.656C729.327 267.781 726.514 267.354 724.098 266.375C721.702 265.396 719.837 263.875 718.504 261.812C717.17 259.75 716.514 257.146 716.535 254V207.5Z" fill="#000D30"/>
</g>
<defs>
<filter id="filter0_d_497_523" x="-4" y="0" width="980" height="342.307" filterUnits="userSpaceOnUse" color-interpolation-filters="sRGB">
<feFlood flood-opacity="0" result="BackgroundImageFix"/>
<feColorMatrix in="SourceAlpha" type="matrix" values="0 0 0 0 0 0 0 0 0 0 0 0 0 0 0 0 0 0 127 0" result="hardAlpha"/>
<feOffset dy="4"/>
<feGaussianBlur stdDeviation="2"/>
<feComposite in2="hardAlpha" operator="out"/>
<feColorMatrix type="matrix" values="0 0 0 0 0 0 0 0 0 0 0 0 0 0 0 0 0 0 0.25 0"/>
<feBlend mode="normal" in2="BackgroundImageFix" result="effect1_dropShadow_497_523"/>
<feBlend mode="normal" in="SourceGraphic" in2="effect1_dropShadow_497_523" result="shape"/>
</filter>
</defs>
</svg>
