<svg width="36" height="36" viewBox="0 0 36 36" fill="none" xmlns="http://www.w3.org/2000/svg">
<path fill-rule="evenodd" clip-rule="evenodd" d="M0.436 2.184C-1.19209e-07 3.04 0 4.16 0 6.4V7.628L35.98 4.356C35.942 3.38 35.84 2.728 35.564 2.184C35.1805 1.43139 34.5686 0.819488 33.816 0.436C32.96 -1.19209e-07 31.84 0 29.6 0H6.4C4.16 0 3.04 -1.19209e-07 2.184 0.436C1.43139 0.819488 0.819488 1.43139 0.436 2.184ZM36 8.372L26.27 9.256L31.282 35.99C32.466 35.964 33.208 35.874 33.816 35.564C34.5686 35.1805 35.1805 34.5686 35.564 33.816C36 32.96 36 31.84 36 29.6V8.372ZM27.216 36L22.268 9.62L0 11.644V29.6C0 31.84 -1.19209e-07 32.96 0.436 33.816C0.819488 34.5686 1.43139 35.1805 2.184 35.564C3.04 36 4.16 36 6.4 36H27.216ZM19 24.06C19 28.376 14.72 31.408 12.854 32.526C12.5962 32.6814 12.301 32.7635 12 32.7635C11.699 32.7635 11.4038 32.6814 11.146 32.526C9.28 31.408 5 28.376 5 24.058C5 19.824 8.392 17 12 17C15.734 17 19 19.824 19 24.06Z" fill="#F8F8F8"/>
</svg>
