<svg width="42" height="38" viewBox="0 0 42 38" fill="none" xmlns="http://www.w3.org/2000/svg">
<path d="M26 6.5C27.7239 6.5 29.3772 5.81518 30.5962 4.59619C31.8152 3.37721 32.5 1.72391 32.5 0H35.5C35.5 1.72391 36.1848 3.37721 37.4038 4.59619C38.6228 5.81518 40.2761 6.5 42 6.5V9.5C40.2761 9.5 38.6228 10.1848 37.4038 11.4038C36.1848 12.6228 35.5 14.2761 35.5 16H32.5C32.5 14.2761 31.8152 12.6228 30.5962 11.4038C29.3772 10.1848 27.7239 9.5 26 9.5V6.5ZM4 10C4 8.93913 4.42143 7.92172 5.17157 7.17157C5.92172 6.42143 6.93913 6 8 6H22V2H8C5.87827 2 3.84344 2.84285 2.34315 4.34315C0.842855 5.84344 0 7.87827 0 10V30C0 32.1217 0.842855 34.1566 2.34315 35.6569C3.84344 37.1571 5.87827 38 8 38H32C34.1217 38 36.1566 37.1571 37.6569 35.6569C39.1571 34.1566 40 32.1217 40 30V20H36V30C36 31.0609 35.5786 32.0783 34.8284 32.8284C34.0783 33.5786 33.0609 34 32 34H8C6.93913 34 5.92172 33.5786 5.17157 32.8284C4.42143 32.0783 4 31.0609 4 30V10Z" fill="#F8F8F8"/>
</svg>
