<svg width="48" height="44" viewBox="0 0 48 44" fill="none" xmlns="http://www.w3.org/2000/svg">
<path d="M24 7.42657L22.7766 8.56964C22.9332 8.73729 23.1226 8.87095 23.3331 8.96233C23.5436 9.05372 23.7706 9.10087 24 9.10087C24.2294 9.10087 24.4564 9.05372 24.6669 8.96233C24.8774 8.87095 25.0668 8.73729 25.2234 8.56964L24 7.42657ZM3.13005 25.5282C3.24051 25.7228 3.38887 25.8933 3.56636 26.0296C3.74385 26.166 3.94687 26.2653 4.16341 26.3218C4.37996 26.3784 4.60564 26.3909 4.82712 26.3587C5.04859 26.3265 5.26136 26.2503 5.45286 26.1344C5.64436 26.0186 5.8107 25.8656 5.94204 25.6844C6.07338 25.5032 6.16707 25.2975 6.21755 25.0794C6.26804 24.8614 6.27431 24.6355 6.23598 24.415C6.19766 24.1945 6.11552 23.9839 5.99442 23.7957L3.13005 25.5282ZM11.8035 31.085C11.6522 30.9191 11.4691 30.7854 11.2651 30.6917C11.0611 30.598 10.8403 30.5463 10.6159 30.5397C10.3915 30.5331 10.1681 30.5716 9.95889 30.6531C9.74969 30.7345 9.55901 30.8572 9.39818 31.0138C9.23735 31.1705 9.10967 31.3579 9.02271 31.5648C8.93576 31.7718 8.89131 31.9942 8.89202 32.2187C8.89273 32.4431 8.93858 32.6652 9.02683 32.8716C9.11509 33.0781 9.24396 33.2646 9.40577 33.4202L11.8035 31.085ZM3.34884 15.7853C3.34884 9.29969 6.17972 5.29224 9.68037 3.91922C13.1743 2.55066 18.0614 3.52852 22.7766 8.56964L25.2234 6.2835C19.8921 0.581545 13.6164 -1.2179 8.45916 0.800336C3.30865 2.81857 0 8.35978 0 15.7853H3.34884ZM31.8363 39.5441C35.1695 36.8405 39.1613 33.2171 42.336 29.1695C45.4772 25.1642 48 20.5094 48 15.7808H44.6512C44.6512 19.3797 42.6865 23.2911 39.6993 27.1021C36.7434 30.8729 32.966 34.3177 29.7287 36.9432L31.8363 39.5441ZM48 15.7808C48 8.35755 44.6913 2.81634 39.5386 0.800336C34.3814 -1.22013 28.1079 0.57708 22.7766 6.28127L25.2234 8.56964C29.9386 3.52852 34.8257 2.54843 38.3196 3.91699C41.8203 5.28778 44.6512 9.29745 44.6512 15.7808H48ZM16.1637 39.5464C18.9991 41.8504 20.9682 43.5404 24 43.5404V40.1916C22.3859 40.1916 21.3812 39.4682 18.2713 36.9455L16.1637 39.5464ZM29.7287 36.9432C26.6188 39.466 25.6141 40.1916 24 40.1916V43.5404C27.0318 43.5404 29.0032 41.8504 31.8385 39.5464L29.7287 36.9432ZM5.99665 23.7957C4.32447 21.0362 3.34884 18.3237 3.34884 15.7853H0C0 19.1609 1.28595 22.4829 3.13005 25.5282L5.99665 23.7957ZM18.2713 36.9455C16.0043 35.1181 13.8448 33.1614 11.8035 31.085L9.40577 33.4202C11.5377 35.5908 13.7956 37.6363 16.1637 39.5464L18.2713 36.9455Z" fill="white"/>
</svg>
